<svg height="100%" width="100%" id="svg" viewBox="0 0 1440 600" xmlns="http://www.w3.org/2000/svg"
    class="transition duration-300 ease-in-out delay-150">
    <defs>
        <linearGradient id="gradient">
            <stop offset="5%" stop-color="#3f51b588"></stop>
            <stop offset="95%" stop-color="#8ed1fc88"></stop>
        </linearGradient>
    </defs>
    <path
        d="M 0,600 C 0,600 0,200 0,200 C 126.59330143540669,204.62200956937798 253.18660287081337,209.24401913875596 339,215 C 424.8133971291866,220.75598086124404 469.8468899521531,227.64593301435406 548,223 C 626.1531100478469,218.35406698564594 737.4258373205741,202.17224880382778 831,186 C 924.5741626794259,169.82775119617222 1000.4497607655503,153.66507177033492 1099,156 C 1197.5502392344497,158.33492822966508 1318.7751196172248,179.16746411483254 1440,200 C 1440,200 1440,600 1440,600 Z"
        stroke="none" stroke-width="0" fill="url(#gradient)" class="transition-all duration-300 ease-in-out delay-150">
    </path>
    <defs>
        <linearGradient id="gradient">
            <stop offset="5%" stop-color="#3f51b5ff"></stop>
            <stop offset="95%" stop-color="#8ed1fcff"></stop>
        </linearGradient>
    </defs>
    <path
        d="M 0,600 C 0,600 0,400 0,400 C 109.48325358851676,421.77033492822966 218.96650717703352,443.5406698564593 318,451 C 417.0334928229665,458.4593301435407 505.61722488038276,451.6076555023924 595,434 C 684.3827751196172,416.3923444976076 774.5645933014354,388.0287081339713 864,366 C 953.4354066985646,343.9712918660287 1042.1244019138755,328.2775119617225 1138,335 C 1233.8755980861245,341.7224880382775 1336.9377990430621,370.8612440191388 1440,400 C 1440,400 1440,600 1440,600 Z"
        stroke="none" stroke-width="0" fill="url(#gradient)" class="transition-all duration-300 ease-in-out delay-150">
    </path>
</svg>