<?xml version="1.0" standalone="no"?><svg xmlns="http://www.w3.org/2000/svg" viewBox="0 0 1440 320">
    <path fill="#3f51b5" fill-opacity="1"
        d="M0,256L40,266.7C80,277,160,299,240,277.3C320,256,400,192,480,192C560,192,640,256,720,277.3C800,299,880,277,960,245.3C1040,213,1120,171,1200,128C1280,85,1360,43,1400,21.3L1440,0L1440,320L1400,320C1360,320,1280,320,1200,320C1120,320,1040,320,960,320C880,320,800,320,720,320C640,320,560,320,480,320C400,320,320,320,240,320C160,320,80,320,40,320L0,320Z">
    </path>
</svg>