<?xml version="1.0" standalone="no"?><svg xmlns="http://www.w3.org/2000/svg" viewBox="0 0 1440 320"><path fill="#3f51b5" fill-opacity="1" d="M0,160L17.1,176C34.3,192,69,224,103,245.3C137.1,267,171,277,206,245.3C240,213,274,139,309,133.3C342.9,128,377,192,411,192C445.7,192,480,128,514,96C548.6,64,583,64,617,53.3C651.4,43,686,21,720,37.3C754.3,53,789,107,823,122.7C857.1,139,891,117,926,138.7C960,160,994,224,1029,234.7C1062.9,245,1097,203,1131,176C1165.7,149,1200,139,1234,128C1268.6,117,1303,107,1337,96C1371.4,85,1406,75,1423,69.3L1440,64L1440,320L1422.9,320C1405.7,320,1371,320,1337,320C1302.9,320,1269,320,1234,320C1200,320,1166,320,1131,320C1097.1,320,1063,320,1029,320C994.3,320,960,320,926,320C891.4,320,857,320,823,320C788.6,320,754,320,720,320C685.7,320,651,320,617,320C582.9,320,549,320,514,320C480,320,446,320,411,320C377.1,320,343,320,309,320C274.3,320,240,320,206,320C171.4,320,137,320,103,320C68.6,320,34,320,17,320L0,320Z"></path></svg>